<?xml version="1.0" encoding="utf-8"?>
<!-- Generator: Adobe Illustrator 27.3.1, SVG Export Plug-In . SVG Version: 6.00 Build 0)  -->
<svg version="1.1" id="Layer_1" xmlns="http://www.w3.org/2000/svg" xmlns:xlink="http://www.w3.org/1999/xlink" x="0px" y="0px"
	 viewBox="0 0 30 31" style="enable-background:new 0 0 30 31;" xml:space="preserve">
<style type="text/css">
	.st0{fill-rule:evenodd;clip-rule:evenodd;fill:#FBD433;}
	.st1{fill-rule:evenodd;clip-rule:evenodd;fill:#40270E;}
	.st2{fill-rule:evenodd;clip-rule:evenodd;fill:#FFFFFF;}
	.st3{fill-rule:evenodd;clip-rule:evenodd;fill:#FF0000;}
</style>
<circle class="st0" cx="15" cy="15.5" r="14.7"/>
<path class="st1" d="M7.1,16.8c4-0.1,12.2,0.1,15.8,0C22.9,26.3,7.1,27.2,7.1,16.8L7.1,16.8z M12.1,11.9c-1.8-1.4-3.4-1.3-5,0
	c-0.7,0.6-1,0.3-0.7-0.6c0.3-0.8,0.7-1.5,1.2-2c2.2-2.3,4.2-0.2,5.1,2C13,12,12.8,12.5,12.1,11.9z M23.1,11.9c-1.8-1.4-3.4-1.3-5,0
	c-0.7,0.6-1,0.3-0.7-0.6c0.3-0.8,0.7-1.5,1.2-2c2.2-2.3,4.2-0.2,5.1,2C24,12,23.8,12.5,23.1,11.9z"/>
<path class="st2" d="M7.1,16.8c4-0.4,12.2-0.2,15.8,0C22.9,20.2,7.2,20.1,7.1,16.8L7.1,16.8z"/>
<path class="st3" d="M9.7,22.5c2.7,2.3,7.6,2.4,10.6,0c-1.6-1.8-3.4-1.9-5.4-0.4C12.9,20.4,11.6,20.4,9.7,22.5z"/>
</svg>
