<?xml version="1.0" encoding="utf-8"?>
<!-- Generator: Adobe Illustrator 27.3.1, SVG Export Plug-In . SVG Version: 6.00 Build 0)  -->
<svg version="1.1"
	 id="Layer_1" shape-rendering="geometricPrecision" text-rendering="geometricPrecision" image-rendering="optimizeQuality"
	 xmlns="http://www.w3.org/2000/svg" xmlns:xlink="http://www.w3.org/1999/xlink" x="0px" y="0px" viewBox="0 0 512 512"
	 style="enable-background:new 0 0 512 512;" xml:space="preserve">
<style type="text/css">
	.st0{fill-rule:evenodd;clip-rule:evenodd;fill:#FBD433;}
	.st1{fill-rule:evenodd;clip-rule:evenodd;fill:#40270E;}
	.st2{fill-rule:evenodd;clip-rule:evenodd;fill:#FFFFFF;}
	.st3{fill-rule:evenodd;clip-rule:evenodd;fill:#FF0000;}
</style>
<circle class="st0" cx="256" cy="256" r="255.9"/>
<path class="st1" d="M119,278.5c69.5-2.2,212.5,1.2,274.1-0.2C393,444,119,459.8,119,278.5L119,278.5z M204.8,193.5
	c-30.6-23.8-59.7-23.4-87.6-0.3c-12.5,10.4-18.1,4.6-12.5-9.6c5.6-14.1,12.7-26.1,21.7-35.4c37.8-39.1,72.4-4.2,88.9,34.7
	C220.6,195.3,217.9,203.7,204.8,193.5z M396.4,193.5c-30.6-23.8-59.7-23.4-87.6-0.3c-12.5,10.4-18.1,4.6-12.5-9.6
	c5.6-14.1,12.7-26.1,21.7-35.4c37.8-39.1,72.4-4.2,88.9,34.7C412.2,195.3,409.4,203.7,396.4,193.5z"/>
<path class="st2" d="M119,278.5c69.5-6.3,212.5-2.8,274.1-0.2C393.8,337.2,119.8,336.5,119,278.5L119,278.5z"/>
<path class="st3" d="M163.7,377.8c46.3,40,132.7,41.6,184.6,0c-28.3-32.1-59.1-33.1-93.3-7.8C219.7,341.7,196.1,340.9,163.7,377.8z"
	/>
</svg>
